<?xml version="1.0" encoding="utf-8"?>
<!-- Generator: Adobe Illustrator 24.1.2, SVG Export Plug-In . SVG Version: 6.00 Build 0)  -->
<svg version="1.1" id="Warstwa_1" xmlns="http://www.w3.org/2000/svg" xmlns:xlink="http://www.w3.org/1999/xlink" x="0px" y="0px"
	 viewBox="0 0 841.9 595.3" style="enable-background:new 0 0 841.9 595.3;" xml:space="preserve">
<style type="text/css">
	.st0{fill-rule:evenodd;clip-rule:evenodd;fill:#E0006C;stroke:#009FE3;stroke-width:0.3685;stroke-miterlimit:22.9256;}
	.st1{fill-rule:evenodd;clip-rule:evenodd;fill:#FFE700;stroke:#009FE3;stroke-width:0.3685;stroke-miterlimit:22.9256;}
	.st2{fill-rule:evenodd;clip-rule:evenodd;stroke:#009FE3;stroke-width:0.3685;stroke-miterlimit:22.9256;}
	.st3{fill-rule:evenodd;clip-rule:evenodd;fill:#FEDBA3;stroke:#009FE3;stroke-width:0.3685;stroke-miterlimit:22.9256;}
	.st4{fill-rule:evenodd;clip-rule:evenodd;fill:#F8C7D3;stroke:#009FE3;stroke-width:0.3685;stroke-miterlimit:22.9256;}
	.st5{fill-rule:evenodd;clip-rule:evenodd;fill:#E11F21;stroke:#009FE3;stroke-width:0.3685;stroke-miterlimit:22.9256;}
	.st6{fill-rule:evenodd;clip-rule:evenodd;fill:#1A1411;stroke:#009FE3;stroke-width:0.3685;stroke-miterlimit:22.9256;}
	.st7{fill-rule:evenodd;clip-rule:evenodd;fill:#FFFFFF;stroke:#009FE3;stroke-width:0.3685;stroke-miterlimit:22.9256;}
</style>
<g>
	<path class="st0" d="M374,172c5.1-2.3,10.1-4.1,14.9-5c0-29.5,26.4-37,40.1-13.8c6.5-3.5,15.6-6,27.4-7.4
		c-4.9-32.2,6.9-46,31.3-42.8c27.5,4.8,29.8,33,1.3,52.3c22.5,20.9,16.4,52.2-25.5,84.2c7.3,12.8,15.7,24.5,25.8,34.5
		c5.8-15.8,13.3-20.3,22.3-15.4c0.6-21.9,10.3-34.9,29.7-35.1c0.7,5.9,1.7,11.8,3.5,17.8c30.5,14.5,31.9,39.8,13,55.8
		c6.9,10.6,4.7,26.5-10.1,31.3c1.8,9.6,1.1,16.8-3.5,20.7c-1.3,15.3-4,29.8-8.8,43c19.8,14.6,32.1,52.8,11.4,57.6
		c4,17.8,0.5,27.5-10.4,28.9c-0.4,17.5-15.5,19-30.8,6.1c-11.6-11.5-13.9-24.5-9.8-38.5c-0.5-6.5-9.4-12.7-8.8-25.5
		c1.8-5.7,5.4-10.5,11.2-14.1c-2.6-17.4,1.6-28.3,14.6-34.5c-11-15-36.4-31.6-45.6-60.3c-1.3-4.3-0.4-7.9,5.6-12.1
		c-10-12.7-23.3-22.7-37.9-31.5c-5.6-3.7-11.8-2.4-15.7,4.1c-6.2,22.7-18.8,38.1-33.4,39.7c-16.4,1.1-30.2-9.7-42.8-25.8
		c-8.4,2.2-17-2.7-28.1-17c-9.8-12.5-11.6-19.7-8-25.1c1.7-1.7,2.5-3.5,1.9-5.2c-4.1-2.9-5.4-8.6-3.9-15.3
		c-33.2-8-40.1-23.5-24.5-43.6c15.1-17.2,36.5-15.6,46.5,15.9c2.9-2.1,6-3.6,9.4-4.8C329.5,161.6,359,148.3,374,172L374,172z"/>
	<path class="st1" d="M415.8,189.2c-22.8,0-29.5-36.7-9.2-43.2C426.7,142.7,437.6,183.3,415.8,189.2L415.8,189.2z"/>
	<path class="st2" d="M422.1,163.4c3,0,5.6,3.3,5.8,7.3c0.2,4-2.1,7.3-5.1,7.3c-3,0-5.6-3.3-5.8-7.3
		C416.8,166.7,419.1,163.4,422.1,163.4L422.1,163.4z"/>
	<path class="st1" d="M352.4,202.4c-15-9.1-14.9-27.9-2.9-35.6c9.6-2.7,19.2,2.8,24.1,16.3C376.7,188.1,360.4,197.1,352.4,202.4
		L352.4,202.4z"/>
	<path class="st2" d="M367.3,192.6c-8.2-5.3-4.9-17,3.5-15.5c1.2,2.2,2.2,4.3,2.8,6C375,185.5,372.5,188.8,367.3,192.6L367.3,192.6z
		"/>
	<path class="st3" d="M349.3,281.6c28.6,38.8,54,25.8,63.5-18.3c-14.6,3.1-29.6,3.6-44.9,2.4C362.8,272.5,356.5,277.7,349.3,281.6
		L349.3,281.6z"/>
	<path class="st4" d="M539.8,377.6c-21.1-4.9-33.4,0.4-35.1,18c0.5,19.5,11.1,34.8,33.9,45.1c6.7,1.8,11.5-1,11-9.7
		c-1.3-23.9-12-35.1-28.2-39.1c-2.9-1.5-2.1-4.2,1.6-4c4.2,0.5,8.2,2.4,12.4,4.3C536.9,388.6,538.4,384.1,539.8,377.6L539.8,377.6z"
		/>
	<path class="st4" d="M501.7,411.5c6.7,14.2,16.8,26,34.1,32.7c6.6,5.8,5.9,23.2-0.9,24.3c-13.6-3.4-26.1-14.5-37.6-31.7
		C490.6,424.8,493.1,416.8,501.7,411.5L501.7,411.5z"/>
	<path class="st4" d="M500.2,451.8c6.9,9.6,15.2,16.6,25.6,20.1c7,0.2,6.1,14.8-1.7,13.7C506.2,480.5,500,468.1,500.2,451.8
		L500.2,451.8z"/>
	<path class="st4" d="M542.1,229.8c-15.7,2.7-25.4,12.3-24.4,34.3c6.5,12.2,15.2,21.6,27.4,27.1c12.9,3.6,21.2-7.9,15-25.7
		c-4.5-9.7-14.5-17.2-25.5-24.1c-2.6-1.6-1.8-3.8,2.5-2.4c2.6,0.8,4.9,2.9,7.7,2.4C543.3,237.1,542.5,233.3,542.1,229.8L542.1,229.8
		z"/>
	<path class="st4" d="M514.9,269.4c6.2,13.1,24.1,28.9,36.1,29.1c6.2,17.5,0.6,27.4-10.8,22.7C513.9,304.7,504.8,286.1,514.9,269.4
		L514.9,269.4z"/>
	<path class="st4" d="M514,305.3c7,8.7,15,16.4,26.4,20.7c4.7,10.6,1.3,23.2-7.4,19.6C515.9,334.1,509.5,318,514,305.3L514,305.3z"
		/>
	<path class="st4" d="M336.5,223.2c12.8-5.2,25.7-9.6,39.2-12c-0.4-6.8-1.7-12.2-3.5-16.8C359.1,202.3,347.4,212.2,336.5,223.2
		L336.5,223.2z"/>
	<path class="st5" d="M330.9,230.8c-1.4,1.3-1.2,2.6,0.3,4c6.8,6,15.4,11.3,27.5,15.5c8.2-9.2,13.7-19.8,17-31.5
		c0.6-2.2,0-3.4-1.7-3.2C359.2,219.4,344.9,224.6,330.9,230.8L330.9,230.8z"/>
	<path class="st3" d="M324.4,234.7c7,8.8,17.8,15.7,34.4,19.9c1.4,2,2,4.8,4.1,7.9c-10.1,9.3-20.1,26.9-37.1,10.4
		C310.6,255.9,306.9,247.9,324.4,234.7L324.4,234.7z"/>
	<path class="st3" d="M364.1,250.3c-0.8,3.3,0.3,6.8,3.1,10.5c18.6-0.2,48,2.4,50.8-8.9c6.6-24.1-5.5-36-33.8-37.5
		c-1.7,0.5-3.1,2.2-4.1,5.2C377.1,230.9,371.7,241.1,364.1,250.3L364.1,250.3z"/>
	<path class="st4" d="M309.2,218.3c1.4,0,2.3,0.8,2.8,2.4c-1.5,5.9-0.4,11.1,3.1,15.6c10.7-9.3,19.4-22,33.2-31.7
		c-3.6-2.6-6-5.6-7.8-8.9c-5.4,1.9-10.1,4.9-14.4,8.5c-1.5-1.3-2.4-2.8-2.9-4.9c-12.2-27.1-24.1-27.5-36.7-14.3
		C275.1,198.2,278.2,212.5,309.2,218.3L309.2,218.3z"/>
	<path class="st0" d="M315.9,211.4c-17.3,0.8-29.9-10.9-21.5-20C303.5,181.9,314.7,193.1,315.9,211.4L315.9,211.4z"/>
	<path class="st6" d="M335.4,184.2c-5.9-0.9-9-5.2-7.8-14.7c3-11.3,9.8-17.9,20.6-19.6c4,1.8,5.9,5.3,6.4,10
		C343.7,159.8,335.6,169.1,335.4,184.2L335.4,184.2z"/>
	<path class="st6" d="M395.6,145.7c7-8.9,22.2-8.7,31,3.9c4.4-1,5.4-4.1,3.1-9.4c-8.4-12.3-29.9-14.8-37.7-4.8c-3.1,4-3,7.3-2.3,9.5
		C391.1,146.3,393.1,146.6,395.6,145.7L395.6,145.7z"/>
	<path class="st4" d="M461.7,150.1c-0.8-28.4,6.2-44.2,25.6-39.9c22.8,8,19.2,23.1-6.2,44.3c22.8,26,10.2,53.5-27,84.3
		c11.7,18.9,25,35.2,40.2,48.4c-0.7-16.5,4.2-24.1,14.9-22.8c-5,11.8-6.4,23.7,2.4,35.9c-9.8,11.4-8.7,22.5,4,38
		c9,11,18.2,15.8,28.7,10.9c-1,9.3-2.1,17.3-3.3,23.7c-7.3-2-14.8-2.6-22.5-2.1c-17.3-21.7-57.2-55.2-40.9-68.4c2.3,3.4,5,6.2,8.2,8
		c1.6,0.5,3.3-0.8,1.7-3.7c-16.3-21.8-33.6-35.6-51.3-44.9c1-1.8,2.6-3.8,5.3-6c0.4-2.2-0.8-3-3.3-2.5c-6.7,3.1-12.8,7.3-18.5,12.1
		c-2.1,0.8-2.8-1.8-2.1-4.5c7.7-5.7,9.8-16.3,8-30.1c9.4-6.6,16.7-15,18.5-25.7c7.4-0.2,17.9-4.5,18.8-9.7
		c-10.7,5.3-22.8,7.5-33,2.7c-0.4,2.7,2.3,5.2,9.7,7.5c-3,8.3-7.9,15.5-15.1,21.3c-8.5-13.9-25-16.7-44.1-16
		c-0.5-10.2-1.8-20.2-4.1-30c4.1-4,8.9-6.7,14.5-8.1c6.2,15.5,14.9,23.3,25.1,20.9c14-3.9,18-16.5,15-34.9
		C441.8,154.5,452.3,151.6,461.7,150.1L461.7,150.1z"/>
	<path class="st2" d="M397.7,242.9c37.4-7,73.5-5.8,95.5,6.9C460.1,241.2,431.5,241.8,397.7,242.9L397.7,242.9z"/>
	<path class="st2" d="M395.4,248.8c37.4-0.7,73.5,6.6,95.5,23C457.8,257.7,429.2,253.4,395.4,248.8L395.4,248.8z"/>
	<path class="st2" d="M270.6,315.6c10.4-22.6,44.5-47.9,69.3-54.3C313.4,275.5,293.7,293,270.6,315.6L270.6,315.6z"/>
	<path class="st2" d="M282.9,330c5.8-23.2,37.3-53.3,60.7-63.2C320.1,282.4,302.2,305.1,282.9,330L282.9,330z"/>
	<path class="st0" d="M472.7,150c-6.6-17.1,0.3-33.6,12-28.3C495.9,127.8,489.1,141,472.7,150L472.7,150z"/>
	<path class="st7" d="M475.2,143.6c-2.3-11.5,1.5-19.6,7.7-16.5C488.2,130.3,484.6,137.2,475.2,143.6L475.2,143.6z"/>
	<path class="st7" d="M311.3,206.8c-9.6-0.4-17.1-6.6-14.3-11.4C302,190.7,308.5,196.2,311.3,206.8L311.3,206.8z"/>
</g>
</svg>
