<?xml version="1.0" encoding="utf-8"?>
<!-- Generator: Adobe Illustrator 24.1.2, SVG Export Plug-In . SVG Version: 6.00 Build 0)  -->
<svg version="1.1" id="Warstwa_1" xmlns="http://www.w3.org/2000/svg" xmlns:xlink="http://www.w3.org/1999/xlink" x="0px" y="0px"
	 viewBox="0 0 327 417" style="enable-background:new 0 0 327 417;" xml:space="preserve">
<style type="text/css">
	.st0{fill-rule:evenodd;clip-rule:evenodd;fill:#E0006C;stroke:#009FE3;stroke-width:0.3685;stroke-miterlimit:22.9256;}
	.st1{fill-rule:evenodd;clip-rule:evenodd;fill:#FFE700;stroke:#009FE3;stroke-width:0.3685;stroke-miterlimit:22.9256;}
	.st2{fill-rule:evenodd;clip-rule:evenodd;stroke:#009FE3;stroke-width:0.3685;stroke-miterlimit:22.9256;}
	.st3{fill-rule:evenodd;clip-rule:evenodd;fill:#FEDBA3;stroke:#009FE3;stroke-width:0.3685;stroke-miterlimit:22.9256;}
	.st4{fill-rule:evenodd;clip-rule:evenodd;fill:#F8C7D3;stroke:#009FE3;stroke-width:0.3685;stroke-miterlimit:22.9256;}
	.st5{fill-rule:evenodd;clip-rule:evenodd;fill:#E11F21;stroke:#009FE3;stroke-width:0.3685;stroke-miterlimit:22.9256;}
	.st6{fill-rule:evenodd;clip-rule:evenodd;fill:#1A1411;stroke:#009FE3;stroke-width:0.3685;stroke-miterlimit:22.9256;}
	.st7{fill-rule:evenodd;clip-rule:evenodd;fill:#FFFFFF;stroke:#009FE3;stroke-width:0.3685;stroke-miterlimit:22.9256;}
</style>
<g>
	<path class="st0" d="M116.9,85.7c5.1-2.3,10.1-4.1,14.9-5c0-29.5,26.4-37,40.1-13.8c6.5-3.5,15.6-6,27.4-7.4
		c-4.9-32.2,6.9-46,31.3-42.8c27.5,4.8,29.8,33,1.3,52.3c22.5,20.9,16.4,52.2-25.5,84.2c7.3,12.8,15.7,24.5,25.8,34.5
		c5.8-15.8,13.3-20.3,22.3-15.4c0.6-21.9,10.3-34.9,29.7-35.1c0.7,5.9,1.7,11.8,3.5,17.8c30.5,14.5,31.9,39.8,13,55.8
		c6.9,10.6,4.7,26.5-10.1,31.3c1.8,9.6,1.1,16.8-3.5,20.7c-1.3,15.3-4,29.8-8.8,43c19.8,14.6,32.1,52.8,11.4,57.6
		c4,17.8,0.5,27.5-10.4,28.9c-0.4,17.5-15.5,19-30.8,6.1c-11.6-11.5-13.9-24.5-9.8-38.5c-0.5-6.5-9.4-12.7-8.8-25.5
		c1.8-5.7,5.4-10.5,11.2-14.1c-2.6-17.4,1.6-28.3,14.6-34.5c-11-15-36.4-31.6-45.6-60.3c-1.3-4.3-0.4-7.9,5.6-12.1
		c-10-12.7-23.3-22.7-37.9-31.5c-5.6-3.7-11.8-2.4-15.7,4.1c-6.2,22.7-18.8,38.1-33.4,39.7c-16.4,1.1-30.2-9.7-42.8-25.8
		c-8.4,2.2-17-2.7-28.1-17c-9.8-12.5-11.6-19.7-8-25.1c1.7-1.7,2.5-3.5,1.9-5.2c-4.1-2.9-5.4-8.6-3.9-15.3
		c-33.2-8-40.1-23.5-24.5-43.6C38.6,76.7,60,78.3,69.9,109.9c2.9-2.1,6-3.6,9.4-4.8C72.5,75.4,102,62,116.9,85.7L116.9,85.7z"/>
	<path class="st1" d="M158.8,102.9c-22.8,0-29.5-36.7-9.2-43.2C169.7,56.5,180.6,97,158.8,102.9L158.8,102.9z"/>
	<path class="st2" d="M165.1,77.1c3,0,5.6,3.3,5.8,7.3c0.2,4-2.1,7.3-5.1,7.3c-3,0-5.6-3.3-5.8-7.3
		C159.8,80.4,162.1,77.1,165.1,77.1L165.1,77.1z"/>
	<path class="st1" d="M95.4,116.1c-15-9.1-14.9-27.9-2.9-35.6c9.6-2.7,19.2,2.8,24.1,16.3C119.7,101.8,103.3,110.9,95.4,116.1
		L95.4,116.1z"/>
	<path class="st2" d="M110.2,106.3c-8.2-5.3-4.9-17,3.5-15.5c1.2,2.2,2.2,4.3,2.8,6C117.9,99.2,115.4,102.5,110.2,106.3L110.2,106.3
		z"/>
	<path class="st3" d="M92.2,195.4c28.6,38.8,54,25.8,63.5-18.3c-14.6,3.1-29.6,3.6-44.9,2.4C105.8,186.3,99.4,191.4,92.2,195.4
		L92.2,195.4z"/>
	<path class="st4" d="M282.7,291.3c-21.1-4.9-33.4,0.4-35.1,18c0.5,19.5,11.1,34.8,33.9,45.1c6.7,1.8,11.5-1,11-9.7
		c-1.3-23.9-12-35.1-28.2-39.1c-2.9-1.5-2.1-4.2,1.6-4c4.2,0.5,8.2,2.4,12.4,4.3C279.9,302.3,281.4,297.8,282.7,291.3L282.7,291.3z"
		/>
	<path class="st4" d="M244.7,325.2c6.7,14.2,16.8,26,34.1,32.7c6.6,5.8,5.9,23.2-0.9,24.3c-13.6-3.4-26.1-14.5-37.6-31.7
		C233.6,338.5,236.1,330.5,244.7,325.2L244.7,325.2z"/>
	<path class="st4" d="M243.2,365.6c6.9,9.6,15.2,16.6,25.6,20.1c7,0.2,6.1,14.8-1.7,13.7C249.2,394.2,242.9,381.9,243.2,365.6
		L243.2,365.6z"/>
	<path class="st4" d="M285.1,143.5c-15.7,2.7-25.4,12.3-24.4,34.3c6.5,12.2,15.2,21.6,27.4,27.1c12.9,3.6,21.2-7.9,15-25.7
		c-4.5-9.7-14.5-17.2-25.5-24.1c-2.6-1.6-1.8-3.8,2.5-2.4c2.6,0.8,4.9,2.9,7.7,2.4C286.2,150.8,285.5,147.1,285.1,143.5L285.1,143.5
		z"/>
	<path class="st4" d="M257.9,183.1c6.2,13.1,24.1,28.9,36.1,29.1c6.2,17.5,0.6,27.4-10.8,22.7C256.9,218.4,247.7,199.8,257.9,183.1
		L257.9,183.1z"/>
	<path class="st4" d="M257,219c7,8.7,15,16.4,26.4,20.7c4.7,10.6,1.3,23.2-7.4,19.6C258.8,247.8,252.5,231.7,257,219L257,219z"/>
	<path class="st4" d="M79.5,137c12.8-5.2,25.7-9.6,39.2-12c-0.4-6.8-1.7-12.2-3.5-16.8C102.1,116,90.4,125.9,79.5,137L79.5,137z"/>
	<path class="st5" d="M73.9,144.6c-1.4,1.3-1.2,2.6,0.3,4c6.8,6,15.4,11.3,27.5,15.5c8.2-9.2,13.7-19.8,17-31.5
		c0.6-2.2,0-3.4-1.7-3.2C102.2,133.1,87.9,138.3,73.9,144.6L73.9,144.6z"/>
	<path class="st3" d="M67.4,148.4c7,8.8,17.8,15.7,34.4,19.9c1.4,2,2,4.8,4.1,7.9c-10.1,9.3-20.1,26.9-37.1,10.4
		C53.6,169.7,49.9,161.6,67.4,148.4L67.4,148.4z"/>
	<path class="st3" d="M107.1,164c-0.8,3.3,0.3,6.8,3.1,10.5c18.6-0.2,48,2.4,50.8-8.9c6.6-24.1-5.5-36-33.8-37.5
		c-1.7,0.5-3.1,2.2-4.1,5.2C120,144.6,114.7,154.9,107.1,164L107.1,164z"/>
	<path class="st4" d="M52.2,132c1.4,0,2.3,0.8,2.8,2.4c-1.5,5.9-0.4,11.1,3.1,15.6c10.7-9.3,19.4-22,33.2-31.7
		c-3.6-2.6-6-5.6-7.8-8.9c-5.4,1.9-10.1,4.9-14.4,8.5c-1.5-1.3-2.4-2.8-2.9-4.9C54,85.9,42.1,85.4,29.5,98.7
		C18,111.9,21.1,126.2,52.2,132L52.2,132z"/>
	<path class="st0" d="M58.9,125.1c-17.3,0.8-29.9-10.9-21.5-20C46.5,95.6,57.7,106.9,58.9,125.1L58.9,125.1z"/>
	<path class="st6" d="M78.4,97.9c-5.9-0.9-9-5.2-7.8-14.7c3-11.3,9.8-17.9,20.6-19.6c4,1.8,5.9,5.3,6.4,10
		C86.6,73.6,78.5,82.8,78.4,97.9L78.4,97.9z"/>
	<path class="st6" d="M138.6,59.4c7-8.9,22.2-8.7,31,3.9c4.4-1,5.4-4.1,3.1-9.4c-8.4-12.3-29.9-14.8-37.7-4.8c-3.1,4-3,7.3-2.3,9.5
		C134.1,60,136,60.3,138.6,59.4L138.6,59.4z"/>
	<path class="st4" d="M204.6,63.9c-0.8-28.4,6.2-44.2,25.6-39.9c22.8,8,19.2,23.1-6.2,44.3c22.8,26,10.2,53.5-27,84.3
		c11.7,18.9,25,35.2,40.2,48.4c-0.7-16.5,4.2-24.1,14.9-22.8c-5,11.8-6.4,23.7,2.4,35.9c-9.8,11.4-8.7,22.5,4,38
		c9,11,18.2,15.8,28.7,10.9c-1,9.3-2.1,17.3-3.3,23.7c-7.3-2-14.8-2.6-22.5-2.1c-17.3-21.7-57.2-55.2-40.9-68.4c2.3,3.4,5,6.2,8.2,8
		c1.6,0.5,3.3-0.8,1.7-3.7c-16.3-21.8-33.6-35.6-51.3-44.9c1-1.8,2.6-3.8,5.3-6c0.4-2.2-0.8-3-3.3-2.5c-6.7,3.1-12.8,7.3-18.5,12.1
		c-2.1,0.8-2.8-1.8-2.1-4.5c7.7-5.7,9.8-16.3,8-30.1c9.4-6.6,16.7-15,18.5-25.7c7.4-0.2,17.9-4.5,18.8-9.7
		c-10.7,5.3-22.8,7.5-33,2.7c-0.4,2.7,2.3,5.2,9.7,7.5c-3,8.3-7.9,15.5-15.1,21.3c-8.5-13.9-25-16.7-44.1-16
		c-0.5-10.2-1.8-20.2-4.1-30c4.1-4,8.9-6.7,14.5-8.1c6.2,15.5,14.9,23.3,25.1,20.9c14-3.9,18-16.5,15-34.9
		C184.8,68.2,195.2,65.3,204.6,63.9L204.6,63.9z"/>
	<path class="st2" d="M140.7,156.6c37.4-7,73.5-5.8,95.5,6.9C203.1,154.9,174.5,155.5,140.7,156.6L140.7,156.6z"/>
	<path class="st2" d="M138.4,162.5c37.4-0.7,73.5,6.6,95.5,23C200.8,171.4,172.2,167.1,138.4,162.5L138.4,162.5z"/>
	<path class="st2" d="M13.6,229.3c10.4-22.6,44.5-47.9,69.3-54.3C56.4,189.2,36.7,206.7,13.6,229.3L13.6,229.3z"/>
	<path class="st2" d="M25.9,243.8c5.8-23.2,37.3-53.3,60.7-63.2C63.1,196.1,45.1,218.8,25.9,243.8L25.9,243.8z"/>
	<path class="st0" d="M215.7,63.7c-6.6-17.1,0.3-33.6,12-28.3C238.9,41.5,232,54.8,215.7,63.7L215.7,63.7z"/>
	<path class="st7" d="M218.2,57.3c-2.3-11.5,1.5-19.6,7.7-16.5C231.2,44,227.6,51,218.2,57.3L218.2,57.3z"/>
	<path class="st7" d="M54.3,120.5c-9.6-0.4-17.1-6.6-14.3-11.4C44.9,104.4,51.4,109.9,54.3,120.5L54.3,120.5z"/>
</g>
</svg>
